<svg xmlns="http://www.w3.org/2000/svg" width="640" height="1164" viewBox="0 0 640 1164" role="img" aria-labelledby="title desc">
<title id="title">Daily Agent 功能地圖</title><desc id="desc">聊天與記憶為主線。11 個選配模組分為日常、知識、創作、連線、語音、備份六組。</desc>
<defs><linearGradient id="bg" x2="1" y2="1"><stop stop-color="#101a2a"/><stop offset="1" stop-color="#14282b"/></linearGradient></defs>
<rect width="640" height="1164" rx="26" fill="url(#bg)"/>
<g font-family="Segoe UI,Microsoft JhengHei,sans-serif"><text x="36" y="47" fill="#eaf3fc" font-size="27" font-weight="650">聊天與記憶是主線，工具按需要加上。</text><text x="36" y="76" fill="#acc0d2" font-size="16">11 個獨立功能模組 · 相同擴充接口 · 停用保留資料</text>
<g transform="translate(32 103)"><rect width="576" height="157" rx="16" fill="#1d2e40" stroke="#354a60"/><g transform="translate(24 22)" stroke="#8fe3d1" stroke-width="2" fill="none" stroke-linecap="round" stroke-linejoin="round"><rect width="26" height="26" rx="6"/><path d="M7 8h12M7 13h9M7 18h6"/></g><text x="66" y="43" font-size="23" fill="#8fe3d1" font-weight="650">日常與陪伴</text><text x="24" y="83" font-size="17" fill="#d1dfeb">行程 · 待辦 · 筆記 · 習慣 · 桌寵</text><text x="24" y="119" font-size="14" fill="#a8bdcf">assistant / companion</text></g>
<g transform="translate(32 276)"><rect width="576" height="157" rx="16" fill="#1d2e40" stroke="#354a60"/><g transform="translate(24 22)" stroke="#93bbff" stroke-width="2" fill="none" stroke-linecap="round"><circle cx="11" cy="11" r="9"/><path d="m18 18 9 9M7 11h8M11 7v8"/></g><text x="66" y="43" font-size="23" fill="#93bbff" font-weight="650">搜尋與知識</text><text x="24" y="83" font-size="17" fill="#d1dfeb">XNG 證據 · 文件 · OCR · 環境</text><text x="24" y="119" font-size="14" fill="#a8bdcf">search / documents / environment</text></g>
<g transform="translate(32 449)"><rect width="576" height="157" rx="16" fill="#1d2e40" stroke="#354a60"/><g transform="translate(24 22)" stroke="#f2c991" stroke-width="2" fill="none" stroke-linecap="round" stroke-linejoin="round"><rect width="28" height="25" rx="5"/><circle cx="8" cy="8" r="2"/><path d="m4 21 7-8 5 5 5-9 5 12"/></g><text x="66" y="43" font-size="23" fill="#f2c991" font-weight="650">生圖與外觀</text><text x="24" y="83" font-size="17" fill="#d1dfeb">動漫／真人 · 切格 · 去背 · 微調</text><text x="24" y="119" font-size="14" fill="#a8bdcf">images / appearance</text></g>
<g transform="translate(32 622)"><rect width="576" height="157" rx="16" fill="#1d2e40" stroke="#354a60"/><g transform="translate(24 22)" stroke="#c1afff" stroke-width="2" fill="none" stroke-linecap="round"><rect x="5" width="18" height="29" rx="4"/><path d="M11 24h6M11 5h6"/></g><text x="66" y="43" font-size="23" fill="#c1afff" font-weight="650">手機與分享</text><text x="24" y="83" font-size="17" fill="#d1dfeb">Android 桌寵 · PocketDrop Room</text><text x="24" y="119" font-size="14" fill="#a8bdcf">mobile / pocketdrop</text></g>
<g transform="translate(32 795)"><rect width="576" height="157" rx="16" fill="#1d2e40" stroke="#354a60"/><g transform="translate(24 22)" stroke="#f2b7cb" stroke-width="2" fill="none" stroke-linecap="round"><rect x="9" width="10" height="19" rx="5"/><path d="M4 12v3a10 10 0 0 0 20 0v-3M14 25v5M9 30h10"/></g><text x="66" y="43" font-size="23" fill="#f2b7cb" font-weight="650">說話與聆聽</text><text x="24" y="83" font-size="17" fill="#d1dfeb">語音朗讀 · 中文辨識 · 音訊設定</text><text x="24" y="119" font-size="14" fill="#a8bdcf">voice</text></g>
<g transform="translate(32 968)"><rect width="576" height="157" rx="16" fill="#1d2e40" stroke="#354a60"/><g transform="translate(24 22)" stroke="#94dce7" stroke-width="2" fill="none" stroke-linecap="round" stroke-linejoin="round"><path d="M4 18a7 7 0 0 1 1-14 11 11 0 0 1 21 6 5 5 0 0 1-1 10M14 13v17m-5-5 5 5 5-5"/></g><text x="66" y="43" font-size="23" fill="#94dce7" font-weight="650">記憶備份</text><text x="24" y="83" font-size="17" fill="#d1dfeb">自己的 Google Drive · 快照校驗</text><text x="24" y="119" font-size="14" fill="#a8bdcf">backup / 需自己的 OAuth 設定</text></g>
</g></svg>
